<svg width="50" height="50" viewBox="0 0 50 50" fill="none" xmlns="http://www.w3.org/2000/svg">
<path d="M30.6667 18.3126L21.7292 27.2709L18.2917 23.8334C18.1049 23.6153 17.8751 23.4382 17.6166 23.3132C17.3582 23.1881 17.0766 23.1178 16.7897 23.1068C16.5028 23.0957 16.2167 23.144 15.9494 23.2488C15.682 23.3535 15.4392 23.5124 15.2362 23.7154C15.0331 23.9184 14.8743 24.1612 14.7695 24.4286C14.6648 24.6959 14.6164 24.982 14.6275 25.2689C14.6386 25.5559 14.7089 25.8374 14.8339 26.0959C14.959 26.3543 15.1361 26.5841 15.3542 26.7709L20.25 31.6876C20.4447 31.8807 20.6756 32.0334 20.9294 32.1371C21.1832 32.2408 21.455 32.2933 21.7292 32.2917C22.2757 32.2894 22.7995 32.0725 23.1875 31.6876L33.6042 21.2709C33.7995 21.0772 33.9545 20.8468 34.0602 20.5929C34.166 20.3391 34.2204 20.0668 34.2204 19.7917C34.2204 19.5167 34.166 19.2444 34.0602 18.9905C33.9545 18.7367 33.7995 18.5063 33.6042 18.3126C33.2139 17.9246 32.6858 17.7068 32.1354 17.7068C31.5851 17.7068 31.057 17.9246 30.6667 18.3126ZM25 4.16675C20.8796 4.16675 16.8517 5.3886 13.4256 7.6778C9.99963 9.96699 7.32937 13.2207 5.75254 17.0275C4.17571 20.8343 3.76314 25.0232 4.567 29.0645C5.37086 33.1057 7.35504 36.8179 10.2686 39.7315C13.1822 42.6451 16.8944 44.6292 20.9356 45.4331C24.9769 46.237 29.1658 45.8244 32.9726 44.2476C36.7794 42.6707 40.0331 40.0005 42.3223 36.5745C44.6115 33.1484 45.8334 29.1205 45.8334 25.0001C45.8334 22.2642 45.2945 19.5551 44.2475 17.0275C43.2005 14.4999 41.666 12.2032 39.7314 10.2687C37.7969 8.33414 35.5002 6.79956 32.9726 5.75259C30.445 4.70562 27.7359 4.16675 25 4.16675V4.16675ZM25 41.6667C21.7037 41.6667 18.4813 40.6893 15.7405 38.8579C12.9997 37.0265 10.8635 34.4236 9.60204 31.3781C8.34058 28.3327 8.01052 24.9816 8.65361 21.7486C9.2967 18.5156 10.884 15.5458 13.2149 13.215C15.5458 10.8841 18.5155 9.29675 21.7485 8.65366C24.9815 8.01057 28.3327 8.34063 31.3781 9.60209C34.4235 10.8635 37.0265 12.9998 38.8579 15.7406C40.6892 18.4814 41.6667 21.7037 41.6667 25.0001C41.6667 29.4204 39.9107 33.6596 36.7851 36.7852C33.6595 39.9108 29.4203 41.6667 25 41.6667V41.6667Z" fill="#08D9D6"/>
</svg>
