<svg width="80" height="80" viewBox="0 0 80 80" fill="none" xmlns="http://www.w3.org/2000/svg">
<path d="M53.3333 34.2333L36.6666 24.6C35.6537 24.0151 34.5047 23.7071 33.335 23.7068C32.1653 23.7065 31.0162 24.0139 30.0029 24.5982C28.9897 25.1826 28.148 26.0232 27.5624 27.0357C26.9768 28.0482 26.6678 29.197 26.6666 30.3666V49.6333C26.6678 50.8024 26.9764 51.9506 27.5615 52.9627C28.1466 53.9749 28.9875 54.8154 30 55.4C31.0134 55.9851 32.1631 56.2931 33.3333 56.2931C34.5035 56.2931 35.6532 55.9851 36.6666 55.4L53.3333 45.7666C54.3436 45.1806 55.1821 44.3394 55.7651 43.3274C56.348 42.3153 56.6548 41.1679 56.6548 40C56.6548 38.832 56.348 37.6846 55.7651 36.6725C55.1821 35.6605 54.3436 34.8193 53.3333 34.2333ZM50 40L33.3333 49.6333V30.3666L50 40ZM40 6.66663C33.4073 6.66663 26.9626 8.62159 21.481 12.2843C15.9993 15.947 11.7269 21.153 9.20399 27.2438C6.68107 33.3347 6.02096 40.0369 7.30713 46.503C8.59331 52.969 11.768 58.9084 16.4297 63.5702C21.0915 68.2319 27.0309 71.4066 33.497 72.6928C39.963 73.979 46.6652 73.3189 52.7561 70.796C58.847 68.273 64.0529 64.0006 67.7156 58.519C71.3783 53.0373 73.3333 46.5927 73.3333 40C73.3333 35.6226 72.4711 31.288 70.796 27.2438C69.1208 23.1997 66.6655 19.525 63.5702 16.4297C60.4749 13.3344 56.8003 10.8791 52.7561 9.20398C48.7119 7.52882 44.3774 6.66663 40 6.66663ZM40 66.6666C34.7258 66.6666 29.5701 65.1027 25.1848 62.1725C20.7995 59.2423 17.3815 55.0775 15.3632 50.2049C13.3449 45.3322 12.8168 39.9704 13.8457 34.7976C14.8746 29.6247 17.4144 24.8732 21.1438 21.1438C24.8732 17.4144 29.6247 14.8746 34.7976 13.8457C39.9704 12.8167 45.3322 13.3448 50.2049 15.3632C55.0776 17.3815 59.2423 20.7994 62.1725 25.1848C65.1027 29.5701 66.6666 34.7258 66.6666 40C66.6666 47.0724 63.8571 53.8552 58.8562 58.8561C53.8552 63.8571 47.0724 66.6666 40 66.6666Z" fill="#FF2E63"/>
</svg>
