<svg width="80" height="80" viewBox="0 0 80 80" fill="none" xmlns="http://www.w3.org/2000/svg">
<path d="M72.3667 51.1005L57.3 36.0068C57.6154 34.4652 57.7717 32.8951 57.7667 31.3214C57.7655 27.0063 56.681 22.7611 54.6132 18.9783C52.5454 15.1954 49.5612 11.997 45.9364 9.67859C42.3116 7.3602 38.1631 5.99667 33.8745 5.71406C29.5859 5.43144 25.2956 6.23885 21.4 8.06165C20.9065 8.28801 20.4754 8.63192 20.1443 9.06351C19.8132 9.49511 19.5921 10.0013 19.5 10.5382C19.4084 11.0683 19.4454 11.6127 19.6078 12.1254C19.7703 12.6381 20.0535 13.1039 20.4334 13.4833L34.9334 28.0081L28.9334 34.0322L14.4667 19.474C14.0856 19.0985 13.6202 18.8204 13.1097 18.6631C12.5993 18.5059 12.0586 18.4741 11.5334 18.5703C11.002 18.6594 10.5 18.8763 10.0704 19.2028C9.6408 19.5292 9.2964 19.9552 9.0667 20.4445C7.24512 24.3686 6.44164 28.6914 6.73101 33.011C7.02038 37.3306 8.39319 41.5065 10.7217 45.1503C13.0503 48.7941 16.2589 51.7873 20.0492 53.8517C23.8394 55.916 28.0881 56.9843 32.4 56.9572C33.9675 56.9623 35.5313 56.8053 37.0667 56.4887L52.1 71.6159C52.4099 71.9295 52.7786 72.1785 53.1848 72.3484C53.591 72.5183 54.0267 72.6058 54.4667 72.6058C54.9067 72.6058 55.3424 72.5183 55.7486 72.3484C56.1548 72.1785 56.5235 71.9295 56.8334 71.6159C57.1458 71.3047 57.3938 70.9346 57.563 70.5268C57.7322 70.1189 57.8194 69.6815 57.8194 69.2397C57.8194 68.7979 57.7322 68.3605 57.563 67.9526C57.3938 67.5448 57.1458 67.1746 56.8334 66.8635L40.5 50.4646C40.0919 50.0575 39.5857 49.7634 39.0308 49.6109C38.4759 49.4585 37.8911 49.4528 37.3334 49.5944C35.7239 50.0272 34.0661 50.2521 32.4 50.2638C29.9069 50.2859 27.434 49.8125 25.1238 48.8708C22.8137 47.9292 20.7119 46.5379 18.9397 44.7772C17.1674 43.0164 15.7596 40.921 14.7974 38.6117C13.8352 36.3023 13.3377 33.8246 13.3334 31.3214C13.3291 30.2003 13.4183 29.0808 13.6 27.9746L26.6667 41.1272C26.9766 41.4409 27.3453 41.6899 27.7514 41.8598C28.1576 42.0297 28.5933 42.1172 29.0334 42.1172C29.4734 42.1172 29.9091 42.0297 30.3153 41.8598C30.7215 41.6899 31.0902 41.4409 31.4 41.1272L42 30.3843C42.6008 29.7602 42.9367 28.9262 42.9367 28.0583C42.9367 27.1904 42.6008 26.3564 42 25.7323L29.0334 12.6132C30.1353 12.4325 31.2502 12.343 32.3667 12.3454C37.3735 12.3543 42.1722 14.3575 45.7095 17.9152C49.2467 21.4729 51.2334 26.2944 51.2334 31.3214C51.2217 32.9941 50.9977 34.6586 50.5667 36.2745C50.4256 36.8345 50.4313 37.4216 50.5831 37.9787C50.735 38.5359 51.0279 39.0441 51.4334 39.4539L67.7667 55.8528C68.3944 56.483 69.2457 56.8371 70.1334 56.8371C71.021 56.8371 71.8724 56.483 72.5 55.8528C73.1277 55.2226 73.4803 54.3679 73.4803 53.4766C73.4803 52.5854 73.1277 51.7307 72.5 51.1005H72.3667Z" fill="#FF2E63"/>
</svg>
