<svg width="68" height="45" viewBox="0 0 68 45" fill="none" xmlns="http://www.w3.org/2000/svg">
<path d="M15.8766 34.933L15.6892 34.7831C15.6196 34.7358 15.5439 34.698 15.4643 34.6706L15.2395 34.5707C15.0369 34.5284 14.827 34.537 14.6286 34.5959C14.4302 34.6547 14.2495 34.762 14.1028 34.908C13.9924 35.0294 13.9037 35.1688 13.8405 35.3202C13.7459 35.5478 13.7208 35.7983 13.7683 36.0401C13.8158 36.2819 13.9338 36.5043 14.1074 36.6792C14.281 36.8541 14.5025 36.9738 14.7439 37.0232C14.9854 37.0725 15.236 37.0493 15.4643 36.9566C15.6136 36.8841 15.7523 36.7917 15.8766 36.6817C16.0499 36.5061 16.1673 36.283 16.214 36.0407C16.2607 35.7984 16.2345 35.5477 16.1389 35.3202C16.0766 35.1757 15.9876 35.0444 15.8766 34.933V34.933ZM19.9862 17.0828H9.99311C8.99924 17.0828 8.04607 17.4776 7.34329 18.1804C6.64051 18.8831 6.2457 19.8363 6.2457 20.8302V38.3181C6.2457 39.312 6.64051 40.2652 7.34329 40.9679C8.04607 41.6707 8.99924 42.0655 9.99311 42.0655H19.9862C20.9801 42.0655 21.9333 41.6707 22.636 40.9679C23.3388 40.2652 23.7336 39.312 23.7336 38.3181V20.8302C23.7336 19.8363 23.3388 18.8831 22.636 18.1804C21.9333 17.4776 20.9801 17.0828 19.9862 17.0828ZM21.2354 38.3181C21.2354 38.6494 21.1038 38.9671 20.8695 39.2014C20.6352 39.4357 20.3175 39.5673 19.9862 39.5673H9.99311C9.66182 39.5673 9.3441 39.4357 9.10984 39.2014C8.87558 38.9671 8.74397 38.6494 8.74397 38.3181V20.8302C8.74397 20.4989 8.87558 20.1812 9.10984 19.9469C9.3441 19.7126 9.66182 19.581 9.99311 19.581H19.9862C20.3175 19.581 20.6352 19.7126 20.8695 19.9469C21.1038 20.1812 21.2354 20.4989 21.2354 20.8302V38.3181Z" fill="#FF2E63"/>
<path d="M58.7159 5.57056H32.7203C31.2429 5.57056 29.826 6.15745 28.7814 7.20211C27.7367 8.24678 27.1498 9.66365 27.1498 11.141V25.9957C27.1498 27.473 27.7367 28.8899 28.7814 29.9346C29.826 30.9793 31.2429 31.5661 32.7203 31.5661H43.8612V35.2798H36.4339C35.9415 35.2798 35.4692 35.4754 35.121 35.8236C34.7727 36.1719 34.5771 36.6442 34.5771 37.1366C34.5771 37.6291 34.7727 38.1014 35.121 38.4496C35.4692 38.7978 35.9415 38.9934 36.4339 38.9934H55.0022C55.4947 38.9934 55.967 38.7978 56.3152 38.4496C56.6634 38.1014 56.859 37.6291 56.859 37.1366C56.859 36.6442 56.6634 36.1719 56.3152 35.8236C55.967 35.4754 55.4947 35.2798 55.0022 35.2798H47.5749V31.5661H58.7159C60.1932 31.5661 61.6101 30.9793 62.6548 29.9346C63.6995 28.8899 64.2863 27.473 64.2863 25.9957V11.141C64.2863 9.66365 63.6995 8.24678 62.6548 7.20211C61.6101 6.15745 60.1932 5.57056 58.7159 5.57056ZM60.5727 25.9957C60.5727 26.4881 60.3771 26.9604 60.0288 27.3086C59.6806 27.6569 59.2083 27.8525 58.7159 27.8525H32.7203C32.2278 27.8525 31.7555 27.6569 31.4073 27.3086C31.0591 26.9604 30.8635 26.4881 30.8635 25.9957V11.141C30.8635 10.6486 31.0591 10.1763 31.4073 9.82806C31.7555 9.47984 32.2278 9.28421 32.7203 9.28421H58.7159C59.2083 9.28421 59.6806 9.47984 60.0288 9.82806C60.3771 10.1763 60.5727 10.6486 60.5727 11.141V25.9957Z" fill="#FF2E63"/>
</svg>
