<svg width="45" height="45" viewBox="0 0 45 45" fill="none" xmlns="http://www.w3.org/2000/svg">
<path d="M39.375 3.75C38.8777 3.75 38.4008 3.94754 38.0492 4.29917C37.6975 4.65081 37.5 5.12772 37.5 5.625V9.375H33.75V5.625C33.75 5.12772 33.5525 4.65081 33.2008 4.29917C32.8492 3.94754 32.3723 3.75 31.875 3.75C31.3777 3.75 30.9008 3.94754 30.5492 4.29917C30.1975 4.65081 30 5.12772 30 5.625V7.5H15V5.625C15 5.12772 14.8025 4.65081 14.4508 4.29917C14.0992 3.94754 13.6223 3.75 13.125 3.75C12.6277 3.75 12.1508 3.94754 11.7992 4.29917C11.4475 4.65081 11.25 5.12772 11.25 5.625V9.375H7.5V5.625C7.5 5.12772 7.30246 4.65081 6.95083 4.29917C6.59919 3.94754 6.12228 3.75 5.625 3.75C5.12772 3.75 4.65081 3.94754 4.29917 4.29917C3.94754 4.65081 3.75 5.12772 3.75 5.625V39.375C3.75 39.8723 3.94754 40.3492 4.29917 40.7008C4.65081 41.0525 5.12772 41.25 5.625 41.25C6.12228 41.25 6.59919 41.0525 6.95083 40.7008C7.30246 40.3492 7.5 39.8723 7.5 39.375V35.625H11.25V39.375C11.25 39.8723 11.4475 40.3492 11.7992 40.7008C12.1508 41.0525 12.6277 41.25 13.125 41.25C13.6223 41.25 14.0992 41.0525 14.4508 40.7008C14.8025 40.3492 15 39.8723 15 39.375V37.5H30V39.375C30 39.8723 30.1975 40.3492 30.5492 40.7008C30.9008 41.0525 31.3777 41.25 31.875 41.25C32.3723 41.25 32.8492 41.0525 33.2008 40.7008C33.5525 40.3492 33.75 39.8723 33.75 39.375V35.625H37.5V39.375C37.5 39.8723 37.6975 40.3492 38.0492 40.7008C38.4008 41.0525 38.8777 41.25 39.375 41.25C39.8723 41.25 40.3492 41.0525 40.7008 40.7008C41.0525 40.3492 41.25 39.8723 41.25 39.375V5.625C41.25 5.12772 41.0525 4.65081 40.7008 4.29917C40.3492 3.94754 39.8723 3.75 39.375 3.75V3.75ZM11.25 31.875H7.5V28.125H11.25V31.875ZM11.25 24.375H7.5V20.625H11.25V24.375ZM11.25 16.875H7.5V13.125H11.25V16.875ZM30 33.75H15V24.375H30V33.75ZM30 20.625H15V11.25H30V20.625ZM37.5 31.875H33.75V28.125H37.5V31.875ZM37.5 24.375H33.75V20.625H37.5V24.375ZM37.5 16.875H33.75V13.125H37.5V16.875Z" fill="#FF2E63"/>
</svg>
