<svg width="80" height="80" viewBox="0 0 80 80" fill="none" xmlns="http://www.w3.org/2000/svg">
<path d="M50 56.6666C49.3407 56.6666 48.6963 56.8621 48.1481 57.2284C47.6 57.5947 47.1727 58.1153 46.9204 58.7244C46.6681 59.3334 46.6021 60.0037 46.7307 60.6503C46.8594 61.2969 47.1768 61.8908 47.643 62.357C48.1092 62.8232 48.7031 63.1406 49.3497 63.2693C49.9963 63.3979 50.6665 63.3319 51.2756 63.0796C51.8847 62.8273 52.4053 62.4 52.7716 61.8519C53.1379 61.3037 53.3334 60.6592 53.3334 60C53.3334 59.1159 52.9822 58.2681 52.357 57.6429C51.7319 57.0178 50.8841 56.6666 50 56.6666ZM30 56.6666H20C19.116 56.6666 18.2681 57.0178 17.643 57.6429C17.0179 58.2681 16.6667 59.1159 16.6667 60C16.6667 60.884 17.0179 61.7319 17.643 62.357C18.2681 62.9821 19.116 63.3333 20 63.3333H30C30.8841 63.3333 31.7319 62.9821 32.357 62.357C32.9822 61.7319 33.3334 60.884 33.3334 60C33.3334 59.1159 32.9822 58.2681 32.357 57.6429C31.7319 57.0178 30.8841 56.6666 30 56.6666ZM60 56.6666C59.3407 56.6666 58.6963 56.8621 58.1481 57.2284C57.6 57.5947 57.1727 58.1153 56.9204 58.7244C56.6681 59.3334 56.6021 60.0037 56.7307 60.6503C56.8594 61.2969 57.1768 61.8908 57.643 62.357C58.1092 62.8232 58.7031 63.1406 59.3497 63.2693C59.9963 63.3979 60.6665 63.3319 61.2756 63.0796C61.8847 62.8273 62.4053 62.4 62.7716 61.8519C63.1379 61.3037 63.3334 60.6592 63.3334 60C63.3334 59.1159 62.9822 58.2681 62.357 57.6429C61.7319 57.0178 60.8841 56.6666 60 56.6666ZM50 36.6666C49.3407 36.6666 48.6963 36.8621 48.1481 37.2284C47.6 37.5947 47.1727 38.1153 46.9204 38.7244C46.6681 39.3334 46.6021 40.0037 46.7307 40.6503C46.8594 41.2969 47.1768 41.8908 47.643 42.357C48.1092 42.8232 48.7031 43.1406 49.3497 43.2692C49.9963 43.3979 50.6665 43.3319 51.2756 43.0796C51.8847 42.8273 52.4053 42.4 52.7716 41.8519C53.1379 41.3037 53.3334 40.6592 53.3334 40C53.3334 39.1159 52.9822 38.2681 52.357 37.6429C51.7319 37.0178 50.8841 36.6666 50 36.6666ZM30 36.6666H20C19.116 36.6666 18.2681 37.0178 17.643 37.6429C17.0179 38.2681 16.6667 39.1159 16.6667 40C16.6667 40.884 17.0179 41.7319 17.643 42.357C18.2681 42.9821 19.116 43.3333 20 43.3333H30C30.8841 43.3333 31.7319 42.9821 32.357 42.357C32.9822 41.7319 33.3334 40.884 33.3334 40C33.3334 39.1159 32.9822 38.2681 32.357 37.6429C31.7319 37.0178 30.8841 36.6666 30 36.6666ZM60 16.6666C59.3407 16.6666 58.6963 16.8621 58.1481 17.2284C57.6 17.5947 57.1727 18.1153 56.9204 18.7244C56.6681 19.3334 56.6021 20.0037 56.7307 20.6503C56.8594 21.2969 57.1768 21.8908 57.643 22.357C58.1092 22.8232 58.7031 23.1406 59.3497 23.2692C59.9963 23.3979 60.6665 23.3319 61.2756 23.0796C61.8847 22.8273 62.4053 22.4 62.7716 21.8519C63.1379 21.3037 63.3334 20.6592 63.3334 20C63.3334 19.1159 62.9822 18.2681 62.357 17.6429C61.7319 17.0178 60.8841 16.6666 60 16.6666ZM60 36.6666C59.3407 36.6666 58.6963 36.8621 58.1481 37.2284C57.6 37.5947 57.1727 38.1153 56.9204 38.7244C56.6681 39.3334 56.6021 40.0037 56.7307 40.6503C56.8594 41.2969 57.1768 41.8908 57.643 42.357C58.1092 42.8232 58.7031 43.1406 59.3497 43.2692C59.9963 43.3979 60.6665 43.3319 61.2756 43.0796C61.8847 42.8273 62.4053 42.4 62.7716 41.8519C63.1379 41.3037 63.3334 40.6592 63.3334 40C63.3334 39.1159 62.9822 38.2681 62.357 37.6429C61.7319 37.0178 60.8841 36.6666 60 36.6666ZM73.3334 16.6666C73.3334 14.0145 72.2798 11.4709 70.4044 9.59556C68.5291 7.72019 65.9855 6.66663 63.3334 6.66663H16.6667C14.0145 6.66663 11.471 7.72019 9.59562 9.59556C7.72026 11.4709 6.66669 14.0145 6.66669 16.6666V23.3333C6.68139 25.8001 7.60739 28.1745 9.26669 30C7.60739 31.8254 6.68139 34.1998 6.66669 36.6666V43.3333C6.68139 45.8001 7.60739 48.1745 9.26669 50C7.60739 51.8254 6.68139 54.1998 6.66669 56.6666V63.3333C6.66669 65.9855 7.72026 68.529 9.59562 70.4044C11.471 72.2797 14.0145 73.3333 16.6667 73.3333H63.3334C65.9855 73.3333 68.5291 72.2797 70.4044 70.4044C72.2798 68.529 73.3334 65.9855 73.3334 63.3333V56.6666C73.3186 54.1998 72.3926 51.8254 70.7334 50C72.3926 48.1745 73.3186 45.8001 73.3334 43.3333V36.6666C73.3186 34.1998 72.3926 31.8254 70.7334 30C72.3926 28.1745 73.3186 25.8001 73.3334 23.3333V16.6666ZM66.6667 63.3333C66.6667 64.2174 66.3155 65.0652 65.6904 65.6903C65.0653 66.3154 64.2174 66.6666 63.3334 66.6666H16.6667C15.7826 66.6666 14.9348 66.3154 14.3097 65.6903C13.6845 65.0652 13.3334 64.2174 13.3334 63.3333V56.6666C13.3334 55.7826 13.6845 54.9347 14.3097 54.3096C14.9348 53.6845 15.7826 53.3333 16.6667 53.3333H63.3334C64.2174 53.3333 65.0653 53.6845 65.6904 54.3096C66.3155 54.9347 66.6667 55.7826 66.6667 56.6666V63.3333ZM66.6667 43.3333C66.6667 44.2174 66.3155 45.0652 65.6904 45.6903C65.0653 46.3154 64.2174 46.6666 63.3334 46.6666H16.6667C15.7826 46.6666 14.9348 46.3154 14.3097 45.6903C13.6845 45.0652 13.3334 44.2174 13.3334 43.3333V36.6666C13.3334 35.7826 13.6845 34.9347 14.3097 34.3096C14.9348 33.6845 15.7826 33.3333 16.6667 33.3333H63.3334C64.2174 33.3333 65.0653 33.6845 65.6904 34.3096C66.3155 34.9347 66.6667 35.7826 66.6667 36.6666V43.3333ZM66.6667 23.3333C66.6667 24.2174 66.3155 25.0652 65.6904 25.6903C65.0653 26.3154 64.2174 26.6666 63.3334 26.6666H16.6667C15.7826 26.6666 14.9348 26.3154 14.3097 25.6903C13.6845 25.0652 13.3334 24.2174 13.3334 23.3333V16.6666C13.3334 15.7826 13.6845 14.9347 14.3097 14.3096C14.9348 13.6845 15.7826 13.3333 16.6667 13.3333H63.3334C64.2174 13.3333 65.0653 13.6845 65.6904 14.3096C66.3155 14.9347 66.6667 15.7826 66.6667 16.6666V23.3333ZM50 16.6666C49.3407 16.6666 48.6963 16.8621 48.1481 17.2284C47.6 17.5947 47.1727 18.1153 46.9204 18.7244C46.6681 19.3334 46.6021 20.0037 46.7307 20.6503C46.8594 21.2969 47.1768 21.8908 47.643 22.357C48.1092 22.8232 48.7031 23.1406 49.3497 23.2692C49.9963 23.3979 50.6665 23.3319 51.2756 23.0796C51.8847 22.8273 52.4053 22.4 52.7716 21.8519C53.1379 21.3037 53.3334 20.6592 53.3334 20C53.3334 19.1159 52.9822 18.2681 52.357 17.6429C51.7319 17.0178 50.8841 16.6666 50 16.6666ZM30 16.6666H20C19.116 16.6666 18.2681 17.0178 17.643 17.6429C17.0179 18.2681 16.6667 19.1159 16.6667 20C16.6667 20.884 17.0179 21.7319 17.643 22.357C18.2681 22.9821 19.116 23.3333 20 23.3333H30C30.8841 23.3333 31.7319 22.9821 32.357 22.357C32.9822 21.7319 33.3334 20.884 33.3334 20C33.3334 19.1159 32.9822 18.2681 32.357 17.6429C31.7319 17.0178 30.8841 16.6666 30 16.6666Z" fill="#FF2E63"/>
</svg>
