<svg width="60" height="60" viewBox="0 0 60 60" fill="none" xmlns="http://www.w3.org/2000/svg">
<path d="M45 15H36.025L41.775 9.27497C42.0081 9.04188 42.193 8.76515 42.3191 8.4606C42.4453 8.15604 42.5102 7.82962 42.5102 7.49997C42.5102 7.17033 42.4453 6.84391 42.3191 6.53935C42.193 6.2348 42.0081 5.95807 41.775 5.72497C41.5419 5.49188 41.2652 5.30698 40.9606 5.18083C40.6561 5.05467 40.3296 4.98975 40 4.98975C39.3342 4.98975 38.6958 5.25422 38.225 5.72497L30 13.85L27.075 8.84997C26.9108 8.56435 26.692 8.31385 26.4311 8.11279C26.1701 7.91172 25.8721 7.76403 25.5541 7.67813C25.236 7.59224 24.9042 7.56983 24.5775 7.61218C24.2508 7.65454 23.9356 7.76082 23.65 7.92498C23.3644 8.08913 23.1139 8.30793 22.9128 8.56889C22.7117 8.82985 22.5641 9.12786 22.4782 9.4459C22.3923 9.76394 22.3699 10.0958 22.4122 10.4225C22.4546 10.7492 22.5608 11.0643 22.725 11.35L25 15H15C13.0109 15 11.1032 15.7902 9.6967 17.1967C8.29018 18.6032 7.5 20.5109 7.5 22.5V42.5C7.5 44.4891 8.29018 46.3967 9.6967 47.8033C11.1032 49.2098 13.0109 50 15 50V52.5C15 53.163 15.2634 53.7989 15.7322 54.2677C16.2011 54.7366 16.837 55 17.5 55C18.163 55 18.7989 54.7366 19.2678 54.2677C19.7366 53.7989 20 53.163 20 52.5V50H40V52.5C40 53.163 40.2634 53.7989 40.7322 54.2677C41.2011 54.7366 41.837 55 42.5 55C43.163 55 43.7989 54.7366 44.2678 54.2677C44.7366 53.7989 45 53.163 45 52.5V50C46.9891 50 48.8968 49.2098 50.3033 47.8033C51.7098 46.3967 52.5 44.4891 52.5 42.5V22.5C52.5 20.5109 51.7098 18.6032 50.3033 17.1967C48.8968 15.7902 46.9891 15 45 15ZM47.5 42.5C47.5 43.163 47.2366 43.7989 46.7678 44.2677C46.2989 44.7366 45.663 45 45 45H15C14.337 45 13.7011 44.7366 13.2322 44.2677C12.7634 43.7989 12.5 43.163 12.5 42.5V22.5C12.5 21.8369 12.7634 21.201 13.2322 20.7322C13.7011 20.2634 14.337 20 15 20H45C45.663 20 46.2989 20.2634 46.7678 20.7322C47.2366 21.201 47.5 21.8369 47.5 22.5V42.5Z" fill="#FF2E63"/>
</svg>
