<svg width="60" height="60" viewBox="0 0 60 60" fill="none" xmlns="http://www.w3.org/2000/svg">
<path d="M41.5 35C41 34.75 37.75 33.25 37.25 33C36.75 32.75 36.25 32.75 35.75 33.25C35.25 33.75 34.25 35.25 33.75 35.75C33.5 36.25 33 36.25 32.5 36C30.75 35.25 29 34.25 27.5 33C26.25 31.75 25 30.25 24 28.75C23.75 28.25 24 27.75 24.25 27.5C24.5 27.25 24.75 26.75 25.25 26.5C25.5 26.25 25.75 25.75 25.75 25.5C26 25.25 26 24.75 25.75 24.5C25.5 24.25 24.25 21.25 23.75 20C23.5 18.25 23 18.25 22.5 18.25C22.25 18.25 21.75 18.25 21.25 18.25C20.75 18.25 20 18.75 19.75 19C18.25 20.5 17.5 22.25 17.5 24.25C17.75 26.5 18.5 28.75 20 30.75C22.75 34.75 26.25 38 30.5 40C31.75 40.5 32.75 41 34 41.25C35.25 41.75 36.5 41.75 38 41.5C39.75 41.25 41.25 40 42.25 38.5C42.75 37.5 42.75 36.5 42.5 35.5C42.5 35.5 42 35.25 41.5 35ZM47.75 12.25C38 2.5 22.25 2.5 12.5 12.25C4.5 20.25 3 32.5 8.5 42.25L5 55L18.25 51.5C22 53.5 26 54.5 30 54.5C43.75 54.5 54.75 43.5 54.75 29.75C55 23.25 52.25 17 47.75 12.25ZM41 47.25C37.75 49.25 34 50.5 30 50.5C26.25 50.5 22.75 49.5 19.5 47.75L18.75 47.25L11 49.25L13 41.75L12.5 41C6.5 31 9.5 18.5 19.25 12.25C29 6 41.5 9.25 47.5 18.75C53.5 28.5 50.75 41.25 41 47.25Z" fill="#08D9D6"/>
</svg>
